<mxfile host="app.diagrams.net" modified="2023-08-07T23:11:43.253Z" agent="Mozilla/5.0 (Macintosh; Intel Mac OS X 10.15; rv:109.0) Gecko/20100101 Firefox/115.0" etag="b8JaTMaWnUxCP4VAiuBb" version="21.5.2" type="github">
  <diagram name="Page-1" id="6Gov_DbCLNXLJJNZCWyp">
    <mxGraphModel dx="1194" dy="792" grid="1" gridSize="10" guides="1" tooltips="1" connect="1" arrows="1" fold="1" page="1" pageScale="1" pageWidth="850" pageHeight="1100" math="0" shadow="0">
      <root>
        <mxCell id="0" />
        <mxCell id="1" parent="0" />
        <mxCell id="Hgi8E1SlKnh-x7dhBQeO-3" style="edgeStyle=orthogonalEdgeStyle;rounded=0;orthogonalLoop=1;jettySize=auto;html=1;" edge="1" parent="1" source="Hgi8E1SlKnh-x7dhBQeO-1" target="Hgi8E1SlKnh-x7dhBQeO-2">
          <mxGeometry relative="1" as="geometry" />
        </mxCell>
        <mxCell id="Hgi8E1SlKnh-x7dhBQeO-1" value="" style="shape=process;whiteSpace=wrap;html=1;backgroundOutline=1;" vertex="1" parent="1">
          <mxGeometry x="110" y="40" width="340" height="140" as="geometry" />
        </mxCell>
        <mxCell id="Hgi8E1SlKnh-x7dhBQeO-2" value="" style="ellipse;whiteSpace=wrap;html=1;" vertex="1" parent="1">
          <mxGeometry x="270" y="380" width="120" height="80" as="geometry" />
        </mxCell>
      </root>
    </mxGraphModel>
  </diagram>
</mxfile>
